<svg version="1" xmlns="http://www.w3.org/2000/svg" width="933.333" height="933.333" viewBox="0 0 700.000000 700.000000"><path d="M330.9 4.4c-.2.2-4.4.6-9.4 1-4.9.3-10.6.8-12.5 1.1-1.9.3-5.9.8-8.9 1-2.9.3-5.6.7-6 .9-.4.3-2.7.7-5.1 1.1-20.9 3.1-51.9 12.4-76 22.7-46.3 20-91.2 52.8-123.1 89.8-3.5 4.1-6.6 7.7-6.9 8-1.9 1.7-14.7 19-20 27-3.5 5.2-7 10.6-8 12-3.4 5.1-13.2 23.2-17.5 32.3-9.5 20.2-21.1 52.6-23.1 64.7-.3 1.4-.9 3.8-1.4 5.5-.5 1.6-1.1 4.3-1.4 6-.3 1.6-1.2 6.8-2.1 11.5-.8 4.7-1.8 10.7-2.1 13.5-.3 2.7-.7 5.5-.9 6.2-2.5 7.6-2.6 73.9-.1 81.5.3.7.7 3.8 1 6.8 1.9 21.7 12.9 62.6 22.7 84.7 1.1 2.3 1.9 4.5 1.9 4.9 0 1.3 12 25.3 17.5 34.9 40.2 69.8 102.4 123 177.5 151.8 21.3 8.2 49.2 15.7 67.5 18.2 1.7.2 5.3.7 8 1.1 2.8.4 5.7.8 6.5.9 18.3 2.6 68.6 2.6 81.9 0 1.3-.2 4.9-.7 8-1.1 18.5-2 60-12.7 73.8-19 1.7-.8 3.4-1.4 3.8-1.4.4 0 2.1-.6 3.8-1.4 1.8-.8 6.6-2.9 10.7-4.7 27.3-12.1 61.6-33.6 81.5-51 10.3-9 14-12.5 21.5-19.9 43.2-42.9 73.8-95.5 90.1-155 3.5-12.6 7.9-35.9 9.4-48.5 1.5-14.3 2-22.8 2-41 0-18.3-.9-36.6-2-41.9-.2-1.1-.7-4-.9-6.4-.8-6.3-3.6-22.1-4.6-26.2-.5-1.9-1.1-4.6-1.4-6-4.9-25.1-22.7-69.4-38.4-95.5-10.2-16.8-24.3-36.7-33.7-47.5-14.1-16.1-24.4-26.6-36.8-37.3-27.5-24-57-42.7-90-57.1-11.5-5-38.9-14.8-44.8-16-1.3-.3-4.9-1.1-7.9-1.9-5.6-1.5-22.7-5.1-29-6.1-1.9-.3-4.4-.7-5.5-1-1.1-.2-5.4-.7-9.5-1.1-4.1-.4-8.4-.9-9.5-1.2-2.3-.5-50.1-1.3-50.6-.9zM310.5 220c1.3 1.1 6.6 10 7 12 .1.3 2.2 4.8 4.7 10s6.7 14 9.3 19.5c2.6 5.5 7 14.7 9.7 20.5 6.3 13.2 13.9 29.1 18.8 39.5 17.4 36.8 18.8 39.4 21.8 38.9.6-.1 1.6-.2 2.1-.3.5 0 2.2-2.7 3.7-5.9 3.3-7 10.7-22.8 14.1-30.2 1.4-3 4.8-10.2 7.4-15.8 2.7-5.7 4.9-10.5 4.9-10.7 0-.2 2.6-5.9 5.9-12.6 3.2-6.8 7-14.9 8.3-17.9 5.3-11.5 8.8-18.9 14.7-31.3 3.4-7.1 6.1-13.1 6.1-13.5 0-.4 1-1.4 2.3-2.2 1.8-1.1 7.8-1.4 32.6-1.5 29.9 0 30.4 0 32.7 2.2 1.4 1.3 2.4 3.4 2.4 5 0 1.5.1 63.3.1 137.3v134.5l-2.4 2.1c-2.3 2-3.4 2-31.8 1.9-16.2-.1-29.9-.3-30.6-.4-3.6-.4-3.7-3.1-3.8-71.1-.1-36.6-.5-67.5-.8-68.6-1-3-4.7-3.8-6.9-1.6-.9.9-10.8 18.8-21.9 39.7-11.1 20.9-21.1 39.8-22.4 42l-2.2 4-13 .3c-14.3.3-14.1.4-18-6.8-2.7-4.9-9.2-16.2-10.3-18-1.5-2.4-13.6-23.5-14.3-25.1-.4-.8-1.7-3-2.8-4.9-1.2-1.9-5.7-9.7-10.1-17.3-8.3-14.3-10.4-16.5-13.8-14.7-2.4 1.3-2.2-1.3-2.5 27.5-.2 23.9-.6 29.2-2.9 42-.3 1.6-.6 3.4-.7 4-.3 2.1-6.2 18.2-8.1 22-14.9 29.3-45.1 47.9-83.3 51.1-29.8 2.4-51.9-3.2-73.1-18.9-11.5-8.5-24.9-23.1-25.8-28.1-.6-3.3 2.5-6.7 13.9-15.6 3.9-3 7.2-5.7 7.5-6 .3-.4 5.1-4.3 10.8-8.8 13.3-10.5 14-10.6 23-1.4 11 11.2 18.7 15.2 30.2 15.4 18.7.3 33.6-11.3 38.1-29.9.9-3.5 1.3-29.3 1.4-97 .1-98 0-94.4 4.7-96.2 1-.3 15.2-.6 31.7-.6 24.2 0 30.2.3 31.6 1.5z"/></svg>